<?xml version="1.0" encoding="utf-8"?>
<!-- Generator: Adobe Illustrator 19.1.0, SVG Export Plug-In . SVG Version: 6.00 Build 0)  -->
<svg version="1.1" id="Layer_1" xmlns="http://www.w3.org/2000/svg" xmlns:xlink="http://www.w3.org/1999/xlink" x="0px" y="0px"
	 viewBox="10 0 500 500" style="enable-background:new 10 0 500 500;" xml:space="preserve">
<style type="text/css">
	.st0{fill:#1FB870;}
	.st1{fill:#F5F6F4;}
</style>
<circle class="st0" cx="260" cy="250" r="250"/>
<g>
	<path class="st0" d="M143.4,241.5c-44.3,0-45.3-112.5,16.9-93.3c-20.6-34.1,13.9-71.1,42.3-47.2c15.9-68.7,101.8-64,116.6,7.3
		c30.4-17.4,59.1,10.8,41.4,43.8c55.4-23.2,65.1,91.7,17.7,89.4"/>
	<path class="st1" d="M379.8,245.5c-0.5,0-1.1,0-1.6,0l0.4-7.9c12.1,0.6,18.5-7.8,21.7-14.9c8.6-19,4.6-48.6-8.5-62.1
		c-7.8-8.1-17.8-9.6-29.5-4.7l-10.3,4.3l5.3-9.8c5.8-10.8,8.2-26.2-2.4-36.6c-8.4-8.2-21.3-8.9-33.5-1.9l-4.7,2.7l-1.1-5.3
		c-3.4-16.4-11-30.1-22-39.6c-9.9-8.5-22.2-13.3-34.6-13.5c-11.7-0.1-22.7,3.7-31.8,11c-10,8.1-17,20.1-20.4,34.9l-1.5,6.3l-4.9-4.2
		c-12.1-10.2-24.3-7.2-31.6-0.9c-13.3,11.4-12.5,30.2-4.8,43l5.4,8.9l-9.9-3.1c-13.8-4.3-24.7-1.9-32.6,7
		c-11.9,13.4-14.4,41.4-5.5,61c3,6.6,9.9,17.6,22.5,17.6v7.9c-12.7,0-23.3-7.9-29.7-22.2c-4.7-10.4-6.8-23.5-5.8-36.2
		c1.1-13.5,5.6-25.3,12.6-33.3c6-6.8,16.2-13.6,32.5-11.2c-2.8-7.2-3.7-14.8-2.5-22.2c1.5-9.2,6-17.4,12.7-23.2
		c10.8-9.2,24.8-10.1,37-2.7c8.8-28.7,31.2-46.7,58.5-46.4c24.9,0.3,53.4,17.3,63.1,54.4c13.9-6,28.5-4.1,38.3,5.4
		c9.6,9.3,12.2,23.5,7.4,37.8c11.3-2.3,21.7,0.9,29.7,9.1c15.3,15.8,20,48.9,10.1,70.9C401.7,238.6,391.9,245.5,379.8,245.5z"/>
</g>
<g>
	<polyline class="st0" points="130.9,270.6 130.9,249.2 74.5,241.5 91.8,284 65.7,315.4 95.9,318.9 	"/>
	<polygon class="st1" points="95.5,322.8 58,318.5 87.2,283.3 68.2,236.7 134.9,245.7 134.9,270.6 127,270.6 127,252.7 80.7,246.4 
		96.4,284.7 73.4,312.3 96.4,315 	"/>
</g>
<g>
	<polyline class="st0" points="389.7,272.9 389.7,251.6 446,243.9 431,286.4 454.6,317.8 426.1,321.3 	"/>
	<polygon class="st1" points="426.6,325.2 425.7,317.4 447.3,314.7 426.5,287 440.1,248.7 393.6,255 393.6,272.9 385.7,272.9 
		385.7,248.1 451.9,239.1 435.4,285.7 461.9,320.9 	"/>
</g>
<g>
	<path class="st0" d="M318.8,447.8H203.7c-7.8,0-14.6-5.6-16.5-13.6l-43.8-192.7h234.9l-43,192.6
		C333.5,442.1,326.7,447.8,318.8,447.8z"/>
	<path class="st1" d="M318.8,451.7H203.7c-9.7,0-18-6.8-20.4-16.6l-44.9-197.6h244.8L339.2,435C336.9,444.9,328.5,451.7,318.8,451.7
		z M148.4,245.5l42.7,187.9c1.5,6.2,6.7,10.5,12.7,10.5h115.1c6,0,11.2-4.4,12.7-10.6l41.9-187.8L148.4,245.5L148.4,245.5z"/>
</g>
<g>
	<path class="st0" d="M417.6,365.3c-96.1,16.5-213.6,16.9-312.9,0v-87.6c98.2,12.7,215.7,12.4,312.9,0V365.3z"/>
	<path class="st1" d="M261.5,381.8c-54,0-108.1-4.2-157.5-12.6l-3.3-0.6v-95.4l4.5,0.6c97,12.5,213.6,12.5,311.9,0l4.5-0.6v95.4
		l-3.3,0.6C369.3,377.6,315.5,381.8,261.5,381.8z M108.6,362c96.3,15.9,209.8,15.9,305,0v-79.7c-96.4,11.8-209.7,11.8-305,0
		L108.6,362L108.6,362z"/>
</g>
<g>
	<path class="st1" d="M148.5,353.8l3.8-56.1l25.7,1.8c2.7,0.2,5.2,0.9,7.5,2.2c2.2,1.3,4.1,2.9,5.7,4.8c1.5,1.9,2.7,4.1,3.5,6.5
		c0.8,2.4,1.1,4.8,0.9,7.2c-0.2,3.3-1.1,6.3-2.8,9c-1.6,2.7-3.7,4.9-6.4,6.5l11.2,21.5l-17.4-1.2l-9.5-17.9l-5.8-0.4l-1.2,17.2
		L148.5,353.8z M166,324.2l9.7,0.7c0.9,0.1,1.9-0.4,2.8-1.4c0.9-1,1.4-2.4,1.5-4.3c0.1-1.9-0.2-3.5-1.1-4.6
		c-0.9-1.1-1.8-1.7-2.7-1.7l-9.3-0.6L166,324.2z"/>
	<path class="st1" d="M248.4,320.1c-1.6-0.9-3.2-1.8-4.9-2.5c-1.4-0.6-3-1.2-4.8-1.8c-1.8-0.6-3.5-0.8-5.2-0.8
		c-1.4,0-2.5,0.2-3.3,0.6c-0.8,0.4-1.2,1.1-1.2,2.1c0,0.7,0.2,1.3,0.7,1.8c0.5,0.5,1.2,0.9,2.1,1.3c0.9,0.4,2,0.8,3.3,1.1
		c1.3,0.4,2.8,0.8,4.4,1.3c2.6,0.8,4.9,1.7,7,2.6c2.1,0.9,3.9,2.1,5.3,3.4c1.5,1.3,2.6,2.9,3.4,4.7c0.8,1.8,1.2,4.1,1.2,6.7
		c0,3.4-0.6,6.2-1.9,8.5c-1.2,2.3-2.9,4.1-4.9,5.5c-2,1.4-4.3,2.4-6.9,3c-2.6,0.6-5.1,0.9-7.7,0.9c-2.1,0-4.2-0.2-6.3-0.5
		c-2.2-0.3-4.3-0.8-6.4-1.3c-2.1-0.6-4.2-1.3-6.2-2.1c-2-0.8-3.8-1.7-5.5-2.7l6.6-13.5c1.8,1.2,3.8,2.2,5.8,3.1
		c1.7,0.8,3.6,1.5,5.7,2.1c2.1,0.6,4.3,0.9,6.5,0.9c1.7,0,2.9-0.2,3.5-0.7c0.7-0.4,1-1,1-1.8c0-0.8-0.3-1.5-1-2
		c-0.7-0.6-1.6-1-2.7-1.5c-1.2-0.4-2.5-0.8-4-1.3c-1.5-0.4-3.1-0.9-4.8-1.5c-2.5-0.8-4.6-1.8-6.4-2.7c-1.8-1-3.3-2.1-4.4-3.3
		c-1.2-1.2-2-2.7-2.6-4.2c-0.6-1.6-0.8-3.4-0.8-5.5c0-3.1,0.6-5.9,1.7-8.2c1.1-2.4,2.7-4.4,4.6-5.9c2-1.6,4.2-2.8,6.7-3.6
		c2.5-0.8,5.2-1.2,8-1.2c2.1,0,4.1,0.2,6,0.6c2,0.4,3.8,0.9,5.7,1.5c1.8,0.6,3.5,1.3,5.1,2c1.6,0.7,3,1.4,4.3,2L248.4,320.1z"/>
	<path class="st1" d="M282.1,303.5l11.6,36.6l10.2-37l16.2-0.3l-19.7,56.5l-12.8,0.2l-21.9-55.8L282.1,303.5z"/>
	<path class="st1" d="M336.3,356.8l-3.4-56.1l24.2-1.5c2.7-0.2,5.3,0.3,7.7,1.2c2.4,1,4.5,2.3,6.2,4.1c1.8,1.7,3.2,3.7,4.3,6
		c1.1,2.3,1.7,4.6,1.8,7c0.1,2.5-0.2,4.9-0.9,7.3c-0.8,2.4-1.9,4.6-3.4,6.5c-1.5,1.9-3.4,3.5-5.6,4.7c-2.2,1.2-4.7,1.9-7.4,2.1
		l-9.2,0.5l1,17.2L336.3,356.8z M349.9,325.2l8.1-0.5c0.9-0.1,1.8-0.5,2.6-1.5c0.8-0.9,1.1-2.5,0.9-4.8c-0.1-2.3-0.7-3.9-1.7-4.7
		c-1-0.8-2-1.1-2.9-1.1l-7.7,0.5L349.9,325.2z"/>
</g>
</svg>
