<?xml version="1.0" encoding="utf-8"?>
<!-- Generator: Adobe Illustrator 19.1.0, SVG Export Plug-In . SVG Version: 6.00 Build 0)  -->
<svg version="1.1" id="Layer_1" xmlns="http://www.w3.org/2000/svg" xmlns:xlink="http://www.w3.org/1999/xlink" x="0px" y="0px"
	 viewBox="0 51.2 500 400" style="enable-background:new 0 51.2 500 400;" xml:space="preserve">
<style type="text/css">
	.st0{fill:#454547;}
	.st1{fill:#F5F6F4;}
	.st2{fill:#52E8B6;}
</style>
<rect y="51.2" class="st0" width="500" height="400"/>
<rect x="77.5" y="239.7" class="st1" width="19.1" height="79.9"/>
<ellipse class="st1" cx="87.6" cy="212.3" rx="32.6" ry="30"/>
<path class="st2" d="M95.6,218l0.6,101.6l17.5,0l4.1-60C179.1,265.1,146,170.4,95.6,218z"/>
<ellipse class="st2" cx="176.2" cy="226.7" rx="32.6" ry="30"/>
<path class="st2" d="M204.3,218l0.6,101.6l17.5,0l4.1-60C287.7,265.1,254.7,170.4,204.3,218z"/>
<ellipse class="st2" cx="284.8" cy="226.7" rx="32.6" ry="30"/>
<path class="st2" d="M439.1,238.2c-6.2-9.4-3-22.4,7.2-29.2s23.5-4.6,29.7,4.7"/>
<path class="st2" d="M398.4,226.8h32.8c0-7.2-2.4-12.8-6.3-17.7c-5.9-7.4-15.5-12.3-26.3-12.3c-18,0-32.6,13.4-32.6,29.9
	s14.6,29.9,32.6,29.9c8.1,0,15-2.2,20.5-6.1L398.4,226.8z"/>
<g>
	<polygon class="st2" points="425.4,205.1 425.8,265 443.3,265 447.4,205.1 	"/>
</g>
<path class="st1" d="M79,218l-0.6,101.6l-17.5,0l-4.1-60C-4.5,265.1,28.6,170.4,79,218z"/>
<path class="st2" d="M302.9,206l41.2,56.3l41.2-56.3H302.9z M334,206h20.2l-10.1,13.8L334,206z"/>
</svg>
