<?xml version="1.0" encoding="utf-8"?>
<!-- Generator: Adobe Illustrator 19.1.0, SVG Export Plug-In . SVG Version: 6.00 Build 0)  -->
<svg version="1.1" id="Layer_1" xmlns="http://www.w3.org/2000/svg" xmlns:xlink="http://www.w3.org/1999/xlink" x="0px" y="0px"
	 viewBox="0 51 500 500" style="enable-background:new 0 51 500 500;" xml:space="preserve">
<style type="text/css">
	.st0{fill:#454547;}
	.st1{fill:#F5F6F4;}
	.st2{fill:#52E8B6;}
</style>
<path class="st0" d="M250,51L250,51c138.1,0,250,111.9,250,250v0c0,138.1-111.9,250-250,250h0C111.9,551,0,439.1,0,301v0
	C0,162.9,111.9,51,250,51z"/>
<rect x="61.3" y="289.8" class="st1" width="52.2" height="79.9"/>
<ellipse class="st1" cx="87.6" cy="262.4" rx="32.6" ry="30"/>
<path class="st2" d="M95.6,268l0.6,101.6h17.5l4.1-60C179.1,315.1,146,220.4,95.6,268z"/>
<ellipse class="st2" cx="176.2" cy="276.8" rx="32.6" ry="30"/>
<path class="st2" d="M204.3,268l0.6,101.6h17.5l4.1-60C287.7,315.1,254.7,220.4,204.3,268z"/>
<ellipse class="st2" cx="284.8" cy="276.8" rx="32.6" ry="30"/>
<path class="st2" d="M439.1,288.2c-6.2-9.4-3-22.4,7.2-29.2c10.2-6.8,23.5-4.6,29.7,4.7"/>
<path class="st2" d="M398.4,276.9h32.8c0-7.2-2.4-12.8-6.3-17.7c-5.9-7.4-15.5-12.3-26.3-12.3c-18,0-32.6,13.4-32.6,29.9
	s14.6,29.9,32.6,29.9c8.1,0,15-2.2,20.5-6.1L398.4,276.9z"/>
<g>
	<polygon class="st2" points="425.4,255.1 425.8,315 443.3,315 447.4,255.1 	"/>
</g>
<path class="st1" d="M79,268l-0.6,101.6H60.9l-4.1-60C-4.5,315.1,28.6,220.4,79,268z"/>
<path class="st2" d="M302.9,256l41.2,56.3l41.2-56.3H302.9L302.9,256z M334,256h20.2l-10.1,13.8L334,256z"/>
</svg>
